<?xml version="1.0" encoding="UTF-8"?>
<svg width="52px" height="15px" viewBox="0 0 52 15" version="1.1" xmlns="http://www.w3.org/2000/svg" xmlns:xlink="http://www.w3.org/1999/xlink">
    <!-- Generator: Sketch 52.3 (67297) - http://www.bohemiancoding.com/sketch -->
    <title>arrows</title>
    <desc>Created with Sketch.</desc>
    <g id="Page-1" stroke="none" stroke-width="1" fill="none" fill-rule="evenodd">
        <g id="PROJET_SINGLE" transform="translate(-4.000000, -956.000000)" fill="#FFFFFF">
            <g id="arrows" transform="translate(4.000000, 956.000000)">
                <path d="M0.739849068,8.58744188 L20.2518701,8.50918381 L15.4809247,13.1365373 C15.269405,13.343691 15.1528341,13.6180546 15.1528341,13.9099112 C15.1528341,14.2026884 15.269405,14.477052 15.4818648,14.683285 C15.6999652,14.8950421 15.9866919,15 16.2724786,15 C16.5592054,15 16.8459321,14.8941214 17.0630924,14.683285 L23.6690891,8.27440961 C23.882489,8.06817659 24,7.79289233 24,7.50011509 C24,7.20825853 23.882489,6.93297427 23.6690891,6.72766193 C23.6690891,6.72766193 20.7112997,3.85730779 19.232405,2.42213073 C18.5093008,1.72040221 17.0630924,0.316945173 17.0630924,0.316945173 C16.6278318,-0.105648391 15.9171254,-0.105648391 15.4818648,0.316945173 C15.269405,0.523178198 15.151894,0.798462459 15.151894,1.0912397 C15.151894,1.38401694 15.269405,1.65838052 15.4818648,1.86369286 L20.079834,6.32532339 L0.739849068,6.40358146 C0.398597211,6.40358146 1.60065738e-10,6.68991392 1.60065738e-10,7.49551167 C1.60065738e-10,8.30110942 0.398597211,8.58744188 0.739849068,8.58744188 Z" id="arrow-right" transform="translate(12.000000, 7.500000) rotate(-180.000000) translate(-12.000000, -7.500000) "></path>
                <path d="M28.7398491,8.58744188 L48.2518701,8.50918381 L43.4809247,13.1365373 C43.269405,13.343691 43.1528341,13.6180546 43.1528341,13.9099112 C43.1528341,14.2026884 43.269405,14.477052 43.4818648,14.683285 C43.6999652,14.8950421 43.9866919,15 44.2724786,15 C44.5592054,15 44.8459321,14.8941214 45.0630924,14.683285 L51.6690891,8.27440961 C51.882489,8.06817659 52,7.79289233 52,7.50011509 C52,7.20825853 51.882489,6.93297427 51.6690891,6.72766193 C51.6690891,6.72766193 48.7112997,3.85730779 47.232405,2.42213073 C46.5093008,1.72040221 45.0630924,0.316945173 45.0630924,0.316945173 C44.6278318,-0.105648391 43.9171254,-0.105648391 43.4818648,0.316945173 C43.269405,0.523178198 43.151894,0.798462459 43.151894,1.0912397 C43.151894,1.38401694 43.269405,1.65838052 43.4818648,1.86369286 L48.079834,6.32532339 L28.7398491,6.40358146 C28.3985972,6.40358146 28,6.68991392 28,7.49551167 C28,8.30110942 28.3985972,8.58744188 28.7398491,8.58744188 Z" id="arrow-right-copy" transform="translate(40.000000, 7.500000) rotate(-360.000000) translate(-40.000000, -7.500000) "></path>
            </g>
        </g>
    </g>
</svg>