<?xml version="1.0" encoding="UTF-8"?>
<svg width="347px" height="58px" viewBox="0 0 347 58" version="1.1" xmlns="http://www.w3.org/2000/svg" xmlns:xlink="http://www.w3.org/1999/xlink">
    <!-- Generator: Sketch 52.3 (67297) - http://www.bohemiancoding.com/sketch -->
    <title>Group 32</title>
    <desc>Created with Sketch.</desc>
    <defs>
        <polygon id="path-1" points="0 57.7489177 346.871 57.7489177 346.871 0.143367965 0 0.143367965"></polygon>
    </defs>
    <g id="Page-1" stroke="none" stroke-width="1" fill="none" fill-rule="evenodd">
        <g id="ACCUEIL" transform="translate(-81.000000, -34.000000)">
            <g id="Group-32" transform="translate(81.000000, 34.000000)">
                <polygon id="Fill-1" fill="#000000" points="28.2384 0.856943723 -0.0001 57.7443983 34.8439 57.7443983 34.8439 27.559039 58.34115 57.7443983 47.3944 0.856943723"></polygon>
                <polygon id="Fill-2" fill="#000000" points="70.89165 0.856943723 59.94465 57.7443983 83.4419 27.559039 83.4419 57.7443983 118.28615 57.7443983 90.0474 0.856943723"></polygon>
                <polygon id="Fill-3" fill="#000000" points="139.43455 25.6175455 139.43455 0.903519481 155.80555 0.903519481 155.80555 2.89435065 141.7588 2.89435065 141.7588 11.8188182 154.43855 11.8188182 154.43855 13.8096494 141.7588 13.8096494 141.7588 23.6267143 156.14705 23.6267143 156.14705 25.6175455"></polygon>
                <polygon id="Fill-4" fill="#000000" points="167.9383 14.7020208 160.7953 25.6175706 158.16355 25.6175706 166.6393 12.9173281 158.50555 0.903544589 161.2053 0.903544589 167.9383 11.3036225 174.70555 0.903544589 177.4053 0.903544589 169.33955 12.9173281 177.78105 25.6175706 175.11555 25.6175706"></polygon>
                <g id="Group-31" transform="translate(0.000000, 0.107714)">
                    <path d="M198.66335,7.96945108 C198.18535,5.86462857 197.29635,4.36541645 195.99785,3.47307013 C194.69885,2.58047273 193.0011,2.13429957 190.9051,2.13429957 C189.4241,2.13429957 188.1481,2.43208312 187.07735,3.02664589 C186.0061,3.62221299 185.12335,4.42291429 184.42885,5.42950303 C183.73335,6.43659394 183.2206,7.59810043 182.89085,8.91352035 C182.56035,10.2299446 182.3951,11.6199359 182.3951,13.0839965 C182.3951,14.4571654 182.5371,15.8074857 182.82235,17.1347065 C183.10685,18.4619273 183.5796,19.6460312 184.24085,20.6870182 C184.9016,21.7287584 185.7901,22.5696329 186.90635,23.2101437 C188.0226,23.8509056 189.4241,24.1712866 191.11035,24.1712866 C192.1581,24.1712866 193.1151,23.9995463 193.9811,23.6563169 C194.84685,23.3128364 195.60435,22.8380398 196.25385,22.2316762 C196.90335,21.6255636 197.4501,20.9102303 197.89435,20.0861784 C198.3391,19.2628797 198.6746,18.3589835 198.90285,17.3747411 L201.32935,17.3747411 C201.0561,18.5646199 200.65685,19.6917281 200.13335,20.7558147 C199.6086,21.8199013 198.9201,22.7524208 198.06535,23.5533732 C197.2111,24.3548277 196.1741,24.9898147 194.95535,25.4580831 C193.73635,25.9271048 192.3066,26.1621177 190.6661,26.1621177 C188.7746,26.1621177 187.1571,25.8128623 185.8131,25.1153558 C184.4681,24.4173472 183.36935,23.4732779 182.5146,22.2831481 C181.66035,21.0937714 181.03935,19.7148277 180.65185,18.1470701 C180.2646,16.5798147 180.0711,14.9151394 180.0711,13.1530442 C180.0711,10.7961351 180.36135,8.79350303 180.94285,7.1459013 C181.52385,5.49829957 182.3266,4.15425628 183.35235,3.11251602 C184.37735,2.071529 185.58485,1.31652468 186.97485,0.847251948 C188.3646,0.378481385 189.8801,0.143468398 191.52035,0.143468398 C192.77335,0.143468398 193.9411,0.309684848 195.0236,0.641364502 C196.1056,0.973044156 197.0626,1.47094026 197.89435,2.13429957 C198.7261,2.79841212 199.40935,3.61618701 199.9451,4.58862857 C200.4801,5.56157229 200.85085,6.68842944 201.0561,7.96945108 L198.66335,7.96945108 Z" id="Fill-5" fill="#000000"></path>
                    <path d="M209.702325,15.7616381 L219.340325,15.7616381 L214.521075,2.78671169 L209.702325,15.7616381 Z M203.618825,25.5099065 L213.290825,0.795880519 L215.922575,0.795880519 L225.355325,25.5099065 L222.963075,25.5099065 L220.126075,17.7524693 L208.916075,17.7524693 L206.011075,25.5099065 L203.618825,25.5099065 Z" id="Fill-7" fill="#000000"></path>
                    <polygon id="Fill-9" fill="#000000" points="226.517175 0.795780087 228.943675 0.795780087 236.359925 22.7639706 243.742425 0.795780087 246.168925 0.795780087 237.624675 25.5098061 235.061425 25.5098061"></polygon>
                    <path d="M253.380525,15.7616381 L263.018525,15.7616381 L258.199275,2.78671169 L253.380525,15.7616381 Z M247.297025,25.5099065 L256.969025,0.795880519 L259.600775,0.795880519 L269.033525,25.5099065 L266.641275,25.5099065 L263.804275,17.7524693 L252.594275,17.7524693 L249.689275,25.5099065 L247.297025,25.5099065 Z" id="Fill-11" fill="#000000"></path>
                    <polygon id="Fill-13" fill="#000000" points="270.1268 0.795780087 288.0358 0.795780087 288.0358 2.78661126 280.2433 2.78661126 280.2433 25.5098061 277.9193 25.5098061 277.9193 2.78661126 270.1268 2.78661126"></polygon>
                    <mask id="mask-2" fill="white">
                        <use xlink:href="#path-1"></use>
                    </mask>
                    <g id="Clip-16"></g>
                    <polygon id="Fill-15" fill="#000000" mask="url(#mask-2)" points="292.171 25.5097056 294.49525 25.5097056 294.49525 0.795679654 292.171 0.795679654"></polygon>
                    <path d="M311.378925,24.1712615 C312.973425,24.1712615 314.346175,23.8682052 315.497175,23.2615905 C316.647425,22.6554779 317.593175,21.8487506 318.333675,20.8414087 C319.073925,19.8348199 319.620925,18.6680407 319.974675,17.3403177 C320.327425,16.0135991 320.504175,14.6286294 320.504175,13.1869152 C320.504175,11.471019 320.293175,9.93213593 319.871925,8.57051688 C319.450175,7.2094 318.840675,6.04739134 318.043425,5.08649957 C317.245425,4.12510563 316.277425,3.39320087 315.138175,2.88952987 C313.998925,2.38636104 312.722925,2.13427446 311.310425,2.13427446 C309.738425,2.13427446 308.376425,2.44335671 307.226175,3.06101905 C306.075675,3.67893247 305.129925,4.49720952 304.389675,5.51534805 C303.648675,6.53398874 303.102175,7.70679394 302.748925,9.03401472 C302.395675,10.3612355 302.219425,11.7454519 302.219425,13.1869152 C302.219425,14.651729 302.395675,16.0479974 302.748925,17.374716 C303.102175,18.7019368 303.648675,19.8692182 304.389675,20.8758069 C305.129925,21.8831489 306.075675,22.6841013 307.226175,23.2789152 C308.376425,23.8739801 309.760675,24.1712615 311.378925,24.1712615 M299.895175,13.1869152 C299.895175,11.379374 300.139675,9.68582424 300.629925,8.10701905 C301.119675,6.52796277 301.843175,5.14952121 302.800425,3.97069004 C303.757425,2.79261212 304.941925,1.85984156 306.354925,1.17338268 C307.767175,0.48692381 309.396675,0.14344329 311.242175,0.14344329 C313.155925,0.14344329 314.835925,0.4814 316.283425,1.15605801 C317.729925,1.83121818 318.937175,2.75821385 319.906175,3.93654286 C320.874425,5.11512294 321.603425,6.49959048 322.093675,8.08994545 C322.582925,9.68030043 322.828175,11.379374 322.828175,13.1869152 C322.828175,14.97211 322.582925,16.6485861 322.093675,18.2158416 C321.603425,19.783097 320.880175,21.1562658 319.923175,22.3348459 C318.966175,23.513426 317.769925,24.4456944 316.334425,25.1321532 C314.899175,25.8188632 313.235675,26.1620926 311.344675,26.1620926 C309.452925,26.1620926 307.790175,25.8188632 306.354925,25.1321532 C304.919175,24.4456944 303.723175,23.513426 302.765925,22.3348459 C301.809425,21.1562658 301.091425,19.783097 300.612925,18.2158416 C300.134675,16.6485861 299.895175,14.97211 299.895175,13.1869152" id="Fill-17" fill="#000000" mask="url(#mask-2)"></path>
                    <polygon id="Fill-18" fill="#000000" mask="url(#mask-2)" points="329.7665 3.95351602 329.698 3.95351602 329.698 25.5099316 327.37375 25.5099316 327.37375 0.795654545 330.0055 0.795654545 344.2235 22.3859662 344.2915 22.3859662 344.2915 0.795654545 346.6155 0.795654545 346.6155 25.5099316 343.91575 25.5099316"></polygon>
                    <polygon id="Fill-19" fill="#000000" mask="url(#mask-2)" points="139.43455 31.5170494 144.8923 31.5170494 144.8923 53.0327896 157.9338 53.0327896 157.9338 57.7488675 139.43455 57.7488675"></polygon>
                    <polygon id="Fill-20" fill="#000000" mask="url(#mask-2)" points="161.10575 57.7489177 166.47475 57.7489177 166.47475 52.4277316 161.10575 52.4277316"></polygon>
                    <path d="M199.09315,31.5170494 L206.9464,31.5170494 L206.9464,57.7488675 L201.8609,57.7488675 L201.8609,40.0058892 C201.8609,39.4959411 201.86665,38.78111 201.87865,37.8613957 C201.89015,36.9421835 201.8964,36.2331273 201.8964,35.734729 L196.9469,57.7488675 L191.6424,57.7488675 L186.7284,35.734729 C186.7284,36.2331273 186.73415,36.9421835 186.74615,37.8613957 C186.75765,38.78111 186.7639,39.4959411 186.7639,40.0058892 L186.7639,57.7488675 L181.67815,57.7488675 L181.67815,31.5170494 L189.62015,31.5170494 L194.3744,52.1429541 L199.09315,31.5170494 Z" id="Fill-21" fill="#000000" mask="url(#mask-2)"></path>
                    <path d="M219.105725,47.8363411 L225.794975,47.8363411 L222.495475,37.5143498 L219.105725,47.8363411 Z M219.465475,31.5169991 L225.640725,31.5169991 L234.881475,57.7488173 L228.963225,57.7488173 L227.239475,52.3565749 L217.621225,52.3565749 L215.850725,57.7488173 L210.141725,57.7488173 L219.465475,31.5169991 Z" id="Fill-22" fill="#000000" mask="url(#mask-2)"></path>
                    <path d="M243.66165,36.0729368 L243.66165,43.1203134 L249.5354,43.1203134 C250.70165,43.1203134 251.5769,42.9779498 252.1604,42.6932225 C253.19265,42.1948242 253.70865,41.2103307 253.70865,39.7389887 C253.70865,38.149387 253.2089,37.0815342 252.2109,36.5356814 C251.64965,36.2273524 250.8084,36.0729368 249.6869,36.0729368 L243.66165,36.0729368 Z M254.9419,32.1932139 C255.90365,32.608755 256.7189,33.2196381 257.3869,34.0263654 C257.93965,34.6909801 258.3774,35.4264 258.7004,36.2331273 C259.0229,37.0401056 259.18415,37.9593177 259.18415,38.9915169 C259.18415,40.237387 258.8709,41.4626684 258.2449,42.6666078 C257.61865,43.8707983 256.58515,44.7219671 255.1439,45.2203654 C256.3489,45.7069628 257.20215,46.3979411 257.7044,47.2935515 C258.2064,48.1896641 258.45765,49.5568069 258.45765,51.3957333 L258.45765,53.1575775 C258.45765,54.3559931 258.5054,55.1684952 258.60165,55.5955861 C258.7454,56.2717506 259.0814,56.7701489 259.6094,57.0905299 L259.6094,57.7488675 L253.58465,57.7488675 C253.4189,57.1678632 253.30115,56.6988416 253.23015,56.343058 C253.0884,55.6076381 253.0114,54.8543913 252.9999,54.0828156 L252.9644,51.6448069 C252.9419,49.9718459 252.6544,48.8570407 252.10115,48.2991359 C251.5479,47.7414823 250.51115,47.4625299 248.99165,47.4625299 L243.66165,47.4625299 L243.66165,57.7488675 L238.32815,57.7488675 L238.32815,31.5170494 L250.8209,31.5170494 C252.60615,31.552703 253.9799,31.7781749 254.9419,32.1932139 Z" id="Fill-23" fill="#000000" mask="url(#mask-2)"></path>
                    <polygon id="Fill-24" fill="#000000" mask="url(#mask-2)" points="283.38915 31.5170494 283.38915 36.1618199 275.57465 36.1618199 275.57465 57.7488675 270.08165 57.7488675 270.08165 36.1618199 262.2319 36.1618199 262.2319 31.5170494"></polygon>
                    <polygon id="Fill-25" fill="#000000" mask="url(#mask-2)" points="305.893125 36.1619203 292.071875 36.1619203 292.071875 41.7321801 304.759125 41.7321801 304.759125 46.2880675 292.071875 46.2880675 292.071875 53.03289 306.531125 53.03289 306.531125 57.748968 286.738125 57.748968 286.738125 31.5171498 305.893125 31.5171498"></polygon>
                    <polygon id="Fill-26" fill="#000000" mask="url(#mask-2)" points="310.783775 31.5170494 316.241525 31.5170494 316.241525 53.0327896 329.283025 53.0327896 329.283025 57.7488675 310.783775 57.7488675"></polygon>
                    <path d="M337.16075,57.6936797 L346.61575,57.6936797 L346.61575,56.5936883 L337.16075,56.5936883 L337.16075,57.6936797 Z M333.47375,57.7489177 L335.09825,57.7489177 L335.09825,56.5389524 L333.47375,56.5389524 L333.47375,57.7489177 Z" id="Fill-27" fill="#000000" mask="url(#mask-2)"></path>
                    <path d="M346.615625,52.6896104 L346.615625,53.7896017 L337.160625,53.7896017 L337.160625,52.6896104 L338.475125,52.6896104 C338.012625,52.2494632 337.635375,51.7945022 337.343375,51.323974 C337.051125,50.853697 336.905125,50.2882597 336.905125,49.6284156 C336.905125,49.0416364 337.005625,48.4980433 337.206625,47.9968831 C337.407125,47.4954719 337.757125,47.0739048 338.255875,46.7316797 C338.596875,46.4999307 338.946625,46.3623377 339.305375,46.3194026 C339.664375,46.2767186 340.038875,46.2553766 340.427875,46.2553766 L346.615625,46.2553766 L346.615625,47.355368 L340.446375,47.355368 C339.594625,47.355368 338.955875,47.544684 338.529625,47.923316 C338.103875,48.3021991 337.890875,48.9316623 337.890875,49.8114545 C337.890875,50.1539307 337.942875,50.4652727 338.045875,50.7462338 C338.149375,51.027697 338.286375,51.28129 338.456875,51.507013 C338.627125,51.7332381 338.821625,51.9258182 339.040625,52.0845022 C339.259875,52.2434372 339.491125,52.3659654 339.734375,52.4513333 C340.038875,52.5613074 340.330875,52.6283463 340.610625,52.6527013 C340.890375,52.6775584 341.194375,52.6896104 341.523125,52.6896104 L346.615625,52.6896104 Z" id="Fill-28" fill="#000000" mask="url(#mask-2)"></path>
                    <path d="M340.135825,36.8697463 C339.430325,37.0650883 338.879575,37.4012874 338.484075,37.8778416 C338.088825,38.3546468 337.890825,38.9592528 337.890825,39.6926641 C337.890825,40.2545861 338.006825,40.7376684 338.237575,41.1409065 C338.469075,41.5441446 338.776075,41.8743177 339.159325,42.1309238 C339.542575,42.3875299 339.974825,42.577097 340.455075,42.6988719 C340.936575,42.8211489 341.419575,42.882413 341.906325,42.882413 C342.405575,42.882413 342.892325,42.8246641 343.366575,42.7081619 C343.841325,42.592413 344.267325,42.4058589 344.644575,42.1492528 C345.021825,41.8921446 345.322825,41.5624736 345.547575,41.1592355 C345.772825,40.7559974 345.885325,40.2671403 345.885325,39.6926641 C345.885325,38.874387 345.660575,38.2168026 345.210075,37.7221706 C344.760325,37.2272874 344.139575,36.9124303 343.348325,36.7778502 L343.348325,35.6047939 C343.871575,35.702716 344.349325,35.858387 344.781075,36.072058 C345.213325,36.2859801 345.584325,36.5609152 345.894825,36.8971143 C346.205075,37.2333134 346.445325,37.6335385 346.615575,38.0980407 C346.786075,38.5625429 346.871075,39.094084 346.871075,39.6926641 C346.871075,40.4506814 346.743325,41.1039974 346.487825,41.6541186 C346.232325,42.2039887 345.882825,42.656439 345.438075,43.010716 C344.994075,43.3652442 344.468325,43.6276251 343.859825,43.7988632 C343.251325,43.9703524 342.600075,44.0554693 341.906325,44.0554693 C341.249325,44.0554693 340.619575,43.9608113 340.017575,43.7714952 C339.414825,43.5819281 338.882575,43.3039801 338.420075,42.9374 C337.957825,42.5705688 337.589825,42.1156078 337.316075,41.5715126 C337.042325,41.0279195 336.905075,40.4014693 336.905075,39.6926641 C336.905075,38.5929238 337.167075,37.7035905 337.690325,37.0254173 C338.213325,36.3469931 339.028825,35.922413 340.135825,35.751426 L340.135825,36.8697463 Z" id="Fill-29" fill="#000000" mask="url(#mask-2)"></path>
                    <polygon id="Fill-30" fill="#000000" mask="url(#mask-2)" points="345.0095 32.8551169 346.61575 32.8551169 346.61575 31.5168485 345.0095 31.5168485"></polygon>
                </g>
            </g>
        </g>
    </g>
</svg>